%FSLAX23Y23*%
%MOIN*%
G70*
G01*
G75*
G04 Layer_Physical_Order=2*
G04 Layer_Color=16711680*
%ADD10R,0.035X0.031*%
%ADD11R,0.118X0.039*%
%ADD12R,0.118X0.059*%
%ADD13C,0.010*%
%ADD14C,0.060*%
%ADD15C,0.039*%
%ADD16C,0.236*%
%ADD17C,0.050*%
G36*
X1417Y931D02*
X1379Y893D01*
Y-14D01*
Y-107D01*
X1358Y-128D01*
X1334Y-103D01*
X-69D01*
X-73Y948D01*
X-69Y952D01*
X1397D01*
X1417Y931D01*
D02*
G37*
%LPC*%
G36*
X1322Y924D02*
X0D01*
X-19Y916D01*
X-27Y897D01*
Y0D01*
X-27Y0D01*
X-27D01*
X-19Y-19D01*
X0Y-27D01*
X1322D01*
X1341Y-19D01*
X1349Y0D01*
Y897D01*
X1341Y916D01*
X1322Y924D01*
D02*
G37*
%LPD*%
G36*
X1295Y27D02*
X27D01*
Y870D01*
X1295D01*
Y27D01*
D02*
G37*
%LPC*%
G36*
X474Y289D02*
X427D01*
Y242D01*
X461Y256D01*
X474Y289D01*
D02*
G37*
G36*
X417Y346D02*
X384Y333D01*
X370Y299D01*
X417D01*
Y346D01*
D02*
G37*
G36*
Y289D02*
X370D01*
X384Y256D01*
X417Y242D01*
Y289D01*
D02*
G37*
G36*
X181Y315D02*
X127Y304D01*
X82Y274D01*
X51Y228D01*
X40Y174D01*
X51Y120D01*
X82Y75D01*
X127Y44D01*
X181Y33D01*
X235Y44D01*
X281Y75D01*
X311Y120D01*
X322Y174D01*
X311Y228D01*
X281Y274D01*
X235Y304D01*
X181Y315D01*
D02*
G37*
G36*
X540Y348D02*
X502Y333D01*
X486Y294D01*
X502Y256D01*
X540Y240D01*
X579Y256D01*
X594Y294D01*
X579Y333D01*
X540Y348D01*
D02*
G37*
G36*
X174Y855D02*
X120Y845D01*
X75Y814D01*
X44Y768D01*
X33Y715D01*
X44Y661D01*
X75Y615D01*
X120Y584D01*
X174Y574D01*
X228Y584D01*
X274Y615D01*
X304Y661D01*
X315Y715D01*
X304Y768D01*
X274Y814D01*
X228Y845D01*
X174Y855D01*
D02*
G37*
G36*
X477Y606D02*
X430D01*
Y559D01*
X463Y573D01*
X477Y606D01*
D02*
G37*
G36*
X430Y663D02*
Y616D01*
X477D01*
X463Y649D01*
X430Y663D01*
D02*
G37*
G36*
X420D02*
X387Y649D01*
X373Y616D01*
X420D01*
Y663D01*
D02*
G37*
G36*
X914Y635D02*
X880Y621D01*
X866Y587D01*
X869Y579D01*
X851Y561D01*
X843Y542D01*
Y313D01*
X836Y310D01*
X821Y276D01*
X836Y241D01*
X870Y227D01*
X905Y241D01*
X919Y276D01*
X905Y310D01*
X897Y313D01*
Y531D01*
X907Y541D01*
X914Y538D01*
X949Y552D01*
X963Y587D01*
X949Y621D01*
X914Y635D01*
D02*
G37*
G36*
X427Y346D02*
Y299D01*
X474D01*
X461Y333D01*
X427Y346D01*
D02*
G37*
G36*
X420Y606D02*
X373D01*
X387Y573D01*
X420Y559D01*
Y606D01*
D02*
G37*
G36*
X543Y665D02*
X505Y649D01*
X489Y611D01*
X505Y573D01*
X543Y557D01*
X582Y573D01*
X597Y611D01*
X582Y649D01*
X543Y665D01*
D02*
G37*
%LPD*%
D13*
X870Y276D02*
Y542D01*
X914Y587D01*
D14*
X425Y611D02*
D03*
X543D02*
D03*
X540Y294D02*
D03*
X422D02*
D03*
D15*
X112Y777D02*
D03*
X237D02*
D03*
X174Y803D02*
D03*
X86Y715D02*
D03*
X112Y652D02*
D03*
X174Y626D02*
D03*
X237Y652D02*
D03*
X263Y715D02*
D03*
X270Y174D02*
D03*
X244Y112D02*
D03*
X181Y86D02*
D03*
X118Y112D02*
D03*
X93Y174D02*
D03*
X181Y263D02*
D03*
X244Y237D02*
D03*
X118D02*
D03*
D16*
X174Y715D02*
D03*
X181Y174D02*
D03*
D17*
X914Y587D02*
D03*
X870Y276D02*
D03*
M02*
