%FSLAX23Y23*%
%MOIN*%
G70*
G01*
G75*
G04 Layer_Physical_Order=1*
G04 Layer_Color=255*
%ADD10R,0.035X0.031*%
%ADD11R,0.118X0.039*%
%ADD12R,0.118X0.059*%
%ADD13C,0.010*%
%ADD14C,0.060*%
%ADD15C,0.039*%
%ADD16C,0.236*%
%ADD17C,0.050*%
G36*
X1395Y940D02*
X1372Y917D01*
Y-124D01*
X-59D01*
X-73Y941D01*
X-69Y945D01*
X1393D01*
X1395Y940D01*
D02*
G37*
%LPC*%
G36*
X1322Y924D02*
X0D01*
X-19Y916D01*
X-27Y897D01*
Y0D01*
X-19Y-19D01*
X0Y-27D01*
X1322D01*
X1341Y-19D01*
X1349Y0D01*
Y897D01*
X1341Y916D01*
X1322Y924D01*
D02*
G37*
%LPD*%
G36*
X731Y599D02*
Y564D01*
Y509D01*
X742D01*
Y486D01*
X733D01*
Y464D01*
X728Y462D01*
X592Y598D01*
X597Y611D01*
X582Y649D01*
X543Y665D01*
X533Y661D01*
X530Y665D01*
X545Y680D01*
X650D01*
X731Y599D01*
D02*
G37*
G36*
X1151Y547D02*
Y458D01*
X1118Y425D01*
X1111D01*
Y437D01*
Y516D01*
Y581D01*
X1115Y583D01*
X1151Y547D01*
D02*
G37*
G36*
X866Y587D02*
Y587D01*
X866Y587D01*
X880Y552D01*
X914Y538D01*
X922Y541D01*
X926Y536D01*
X926Y536D01*
X926Y536D01*
D01*
X926Y536D01*
X926Y536D01*
X945Y529D01*
X953D01*
Y516D01*
Y504D01*
X806D01*
Y509D01*
X806D01*
Y564D01*
Y572D01*
X834D01*
X853Y580D01*
X862Y589D01*
X866Y587D01*
D02*
G37*
G36*
X1098Y600D02*
X1096Y595D01*
X959D01*
X949Y621D01*
Y621D01*
Y621D01*
X950Y625D01*
X1072D01*
X1098Y600D01*
D02*
G37*
G36*
X1295Y692D02*
X1150D01*
Y631D01*
X1145Y630D01*
X1103Y672D01*
X1084Y680D01*
X887D01*
X887Y680D01*
X868Y672D01*
X822Y626D01*
X806D01*
Y635D01*
X771D01*
X681Y726D01*
X661Y734D01*
X533D01*
X533Y734D01*
X520Y728D01*
X514Y726D01*
X514Y726D01*
X445Y657D01*
X430Y663D01*
Y616D01*
X481D01*
X489Y624D01*
X493Y621D01*
X489Y611D01*
X505Y573D01*
X543Y557D01*
X552Y561D01*
X733Y380D01*
Y359D01*
X736D01*
Y358D01*
X736D01*
Y324D01*
X732Y321D01*
X583D01*
X579Y333D01*
X540Y348D01*
X502Y333D01*
X486Y294D01*
X502Y256D01*
X540Y240D01*
X579Y256D01*
X583Y267D01*
X721D01*
X726Y262D01*
X726Y262D01*
X732Y260D01*
X736Y258D01*
Y231D01*
X811D01*
Y240D01*
X839D01*
X870Y227D01*
X905Y241D01*
X919Y276D01*
X905Y310D01*
X870Y324D01*
X836Y310D01*
X829Y294D01*
X811D01*
Y328D01*
X833Y349D01*
X840Y369D01*
Y421D01*
X833Y440D01*
X833Y440D01*
X827Y445D01*
X829Y450D01*
X953D01*
Y437D01*
Y403D01*
X1032D01*
Y398D01*
X1037D01*
Y358D01*
X1111D01*
Y371D01*
X1129D01*
X1149Y379D01*
X1197Y428D01*
X1197Y428D01*
X1200Y433D01*
X1205Y447D01*
X1205Y447D01*
Y558D01*
X1197Y577D01*
X1186Y588D01*
X1188Y593D01*
X1295D01*
Y361D01*
X1150D01*
Y262D01*
X1295D01*
Y27D01*
X27D01*
Y870D01*
X1295D01*
Y692D01*
D02*
G37*
%LPC*%
G36*
X417Y289D02*
X370D01*
X384Y256D01*
X417Y242D01*
Y289D01*
D02*
G37*
G36*
X181Y315D02*
X127Y304D01*
X82Y274D01*
X51Y228D01*
X40Y174D01*
X51Y120D01*
X82Y75D01*
X127Y44D01*
X181Y33D01*
X235Y44D01*
X281Y75D01*
X311Y120D01*
X322Y174D01*
X311Y228D01*
X281Y274D01*
X235Y304D01*
X181Y315D01*
D02*
G37*
G36*
X420Y663D02*
X387Y649D01*
X373Y616D01*
X420D01*
Y663D01*
D02*
G37*
G36*
X1027Y393D02*
X953D01*
Y358D01*
X1027D01*
Y393D01*
D02*
G37*
G36*
X174Y855D02*
X120Y845D01*
X75Y814D01*
X44Y768D01*
X33Y715D01*
X44Y661D01*
X75Y615D01*
X120Y584D01*
X174Y574D01*
X228Y584D01*
X274Y615D01*
X304Y661D01*
X315Y715D01*
X304Y768D01*
X274Y814D01*
X228Y845D01*
X174Y855D01*
D02*
G37*
G36*
X474Y289D02*
X427D01*
Y242D01*
X461Y256D01*
X474Y289D01*
D02*
G37*
G36*
X477Y606D02*
X373D01*
X387Y573D01*
X398Y568D01*
Y338D01*
X384Y333D01*
X370Y299D01*
X474D01*
X461Y333D01*
X452Y336D01*
Y568D01*
X463Y573D01*
X477Y606D01*
D02*
G37*
%LPD*%
D10*
X769Y599D02*
D03*
Y544D02*
D03*
X774Y322D02*
D03*
Y267D02*
D03*
X771Y450D02*
D03*
Y395D02*
D03*
D11*
X1032Y556D02*
D03*
Y477D02*
D03*
Y398D02*
D03*
D12*
X1229Y642D02*
D03*
Y311D02*
D03*
D13*
X798Y477D02*
X1032D01*
X771Y450D02*
X798Y477D01*
X774Y322D02*
Y329D01*
X813Y369D02*
Y421D01*
X799Y435D02*
X813Y421D01*
X785Y435D02*
X799D01*
X771Y450D02*
X785Y435D01*
X425Y611D02*
X438D01*
X533Y707D01*
X661D01*
X769Y599D01*
X425Y297D02*
Y611D01*
X422Y294D02*
X425Y297D01*
X540Y294D02*
X732D01*
X746Y281D01*
X759D01*
X774Y267D02*
Y270D01*
X759Y281D02*
X774Y267D01*
Y329D02*
X813Y369D01*
X543Y608D02*
Y611D01*
Y608D02*
X757Y395D01*
X771D01*
X769Y452D02*
Y544D01*
Y599D02*
X834D01*
X887Y653D01*
X1084D01*
X1178Y558D01*
Y447D02*
Y558D01*
X1129Y398D02*
X1178Y447D01*
X1032Y398D02*
X1129D01*
X945Y556D02*
X1032D01*
X914Y587D02*
X945Y556D01*
X774Y267D02*
X861D01*
X870Y276D01*
D14*
X425Y611D02*
D03*
X543D02*
D03*
X540Y294D02*
D03*
X422D02*
D03*
D15*
X112Y777D02*
D03*
X237D02*
D03*
X174Y803D02*
D03*
X86Y715D02*
D03*
X112Y652D02*
D03*
X174Y626D02*
D03*
X237Y652D02*
D03*
X263Y715D02*
D03*
X270Y174D02*
D03*
X244Y112D02*
D03*
X181Y86D02*
D03*
X118Y112D02*
D03*
X93Y174D02*
D03*
X181Y263D02*
D03*
X244Y237D02*
D03*
X118D02*
D03*
D16*
X174Y715D02*
D03*
X181Y174D02*
D03*
D17*
X914Y587D02*
D03*
X870Y276D02*
D03*
M02*
