%FSLAX23Y23*%
%MOIN*%
G70*
G01*
G75*
%ADD10R,0.035X0.031*%
%ADD11R,0.118X0.039*%
%ADD12R,0.118X0.059*%
%ADD13C,0.010*%
%ADD14C,0.060*%
%ADD15C,0.039*%
%ADD16C,0.236*%
%ADD17C,0.050*%
%ADD18C,0.004*%
%ADD19C,0.000*%
%ADD20R,0.023X0.043*%
D13*
X1240Y768D02*
G03*
X1240Y768I-47J0D01*
G01*
X1191Y686D02*
Y850D01*
X1287Y277D02*
Y677D01*
X1037D02*
X1287D01*
X1032Y672D02*
X1037Y677D01*
X1032Y277D02*
Y672D01*
Y277D02*
X1287D01*
X402Y112D02*
X396Y118D01*
X383D01*
X376Y112D01*
Y105D01*
X383Y98D01*
X396D01*
X402Y92D01*
Y85D01*
X396Y79D01*
X383D01*
X376Y85D01*
X435Y79D02*
X422D01*
X415Y85D01*
Y98D01*
X422Y105D01*
X435D01*
X442Y98D01*
Y92D01*
X415D01*
X455Y79D02*
Y105D01*
X474D01*
X481Y98D01*
Y79D01*
X494D02*
X514D01*
X520Y85D01*
X514Y92D01*
X501D01*
X494Y98D01*
X501Y105D01*
X520D01*
X540Y79D02*
X553D01*
X560Y85D01*
Y98D01*
X553Y105D01*
X540D01*
X533Y98D01*
Y85D01*
X540Y79D01*
X573Y105D02*
Y79D01*
Y92D01*
X579Y98D01*
X586Y105D01*
X592D01*
X380Y175D02*
Y201D01*
X393Y215D01*
X406Y201D01*
Y175D01*
Y195D01*
X380D01*
X419Y175D02*
Y201D01*
X439D01*
X446Y195D01*
Y175D01*
X465Y201D02*
X478D01*
X485Y195D01*
Y175D01*
X465D01*
X459Y182D01*
X465Y188D01*
X485D01*
X498Y175D02*
X511D01*
X505D01*
Y215D01*
X498D01*
X537Y175D02*
X550D01*
X557Y182D01*
Y195D01*
X550Y201D01*
X537D01*
X531Y195D01*
Y182D01*
X537Y175D01*
X583Y162D02*
X590D01*
X596Y169D01*
Y201D01*
X577D01*
X570Y195D01*
Y182D01*
X577Y175D01*
X596D01*
X675Y208D02*
X669Y215D01*
X655D01*
X649Y208D01*
Y182D01*
X655Y175D01*
X669D01*
X675Y182D01*
Y195D01*
X662D01*
X688Y201D02*
Y175D01*
Y188D01*
X695Y195D01*
X701Y201D01*
X708D01*
X734D02*
X747D01*
X754Y195D01*
Y175D01*
X734D01*
X728Y182D01*
X734Y188D01*
X754D01*
X767Y201D02*
Y182D01*
X773Y175D01*
X793D01*
Y169D01*
X787Y162D01*
X780D01*
X793Y175D02*
Y201D01*
X806Y175D02*
X826D01*
X833Y182D01*
X826Y188D01*
X813D01*
X806Y195D01*
X813Y201D01*
X833D01*
X872D02*
X852D01*
X846Y195D01*
Y182D01*
X852Y175D01*
X872D01*
X892Y201D02*
X905D01*
X911Y195D01*
Y175D01*
X892D01*
X885Y182D01*
X892Y188D01*
X911D01*
X924Y175D02*
X937D01*
X931D01*
Y215D01*
X924D01*
X977Y175D02*
X964D01*
X957Y182D01*
Y195D01*
X964Y201D01*
X977D01*
X983Y195D01*
Y188D01*
X957D01*
D18*
X1113Y735D02*
X1133Y751D01*
X1130Y739D02*
X1133Y751D01*
X1122Y752D02*
X1133Y751D01*
Y734D02*
X1144Y733D01*
X1141Y721D02*
X1144Y733D01*
X1124Y718D02*
X1144Y733D01*
X1147Y719D02*
X1157Y719D01*
X1155Y707D02*
X1157Y719D01*
X1138Y703D02*
X1157Y719D01*
D19*
X1247Y70D02*
Y220D01*
X1246Y70D02*
Y220D01*
X1246Y70D02*
Y220D01*
X1246Y70D02*
Y220D01*
X1245Y70D02*
Y220D01*
X1245Y70D02*
Y220D01*
X1245Y70D02*
Y220D01*
X1245Y70D02*
Y220D01*
X1244Y70D02*
Y220D01*
X1244Y70D02*
Y220D01*
X1244Y70D02*
Y220D01*
X1243Y70D02*
Y220D01*
X1243Y70D02*
Y220D01*
X1243Y70D02*
Y220D01*
X1242Y70D02*
Y220D01*
X1242Y70D02*
Y220D01*
X1242Y70D02*
Y220D01*
X1242Y70D02*
Y220D01*
X1241Y70D02*
Y220D01*
X1241Y70D02*
Y220D01*
X1241Y70D02*
Y220D01*
X1240Y70D02*
Y220D01*
X1240Y70D02*
Y220D01*
X1240Y70D02*
Y220D01*
X1239Y70D02*
Y220D01*
X1239Y70D02*
Y220D01*
X1239Y70D02*
Y220D01*
X1239Y70D02*
Y220D01*
X1238Y70D02*
Y220D01*
X1238Y70D02*
Y220D01*
X1238Y70D02*
Y220D01*
X1237Y70D02*
Y220D01*
X1237Y70D02*
Y220D01*
X1237Y70D02*
Y220D01*
X1236Y70D02*
Y220D01*
X1236Y70D02*
Y220D01*
X1236Y70D02*
Y220D01*
X1236Y70D02*
Y220D01*
X1235Y70D02*
Y220D01*
X1235Y70D02*
Y220D01*
X1235Y70D02*
Y220D01*
X1234Y70D02*
Y220D01*
X1234Y70D02*
Y220D01*
X1234Y70D02*
Y220D01*
X1233Y70D02*
Y220D01*
X1233Y70D02*
Y220D01*
X1233Y70D02*
Y220D01*
X1233Y70D02*
Y220D01*
X1232Y70D02*
Y220D01*
X1232Y70D02*
Y220D01*
X1232Y70D02*
Y220D01*
X1231Y70D02*
Y220D01*
X1231Y70D02*
Y220D01*
X1231Y70D02*
Y220D01*
X1230Y70D02*
Y220D01*
X1230Y70D02*
Y220D01*
X1230Y207D02*
Y220D01*
Y118D02*
Y206D01*
Y83D02*
Y115D01*
Y70D02*
Y81D01*
X1230Y207D02*
Y220D01*
Y118D02*
Y206D01*
Y83D02*
Y115D01*
Y70D02*
Y81D01*
X1229Y206D02*
Y220D01*
Y118D02*
Y160D01*
Y70D02*
Y81D01*
X1229Y206D02*
Y220D01*
Y118D02*
Y160D01*
Y70D02*
Y81D01*
X1229Y208D02*
Y220D01*
Y118D02*
Y160D01*
Y70D02*
Y81D01*
X1228Y208D02*
Y220D01*
Y118D02*
Y160D01*
Y70D02*
Y81D01*
X1228Y207D02*
Y220D01*
Y205D02*
Y206D01*
Y117D02*
Y160D01*
Y70D02*
Y82D01*
X1228Y207D02*
Y220D01*
Y205D02*
Y206D01*
Y117D02*
Y160D01*
Y70D02*
Y82D01*
X1227Y206D02*
Y220D01*
Y205D02*
Y206D01*
Y118D02*
Y160D01*
Y70D02*
Y81D01*
X1227Y204D02*
Y220D01*
Y113D02*
Y166D01*
Y70D02*
Y83D01*
X1227Y204D02*
Y220D01*
Y113D02*
Y166D01*
Y70D02*
Y83D01*
X1227Y200D02*
Y220D01*
Y110D02*
Y167D01*
Y70D02*
Y86D01*
X1226Y200D02*
Y220D01*
Y110D02*
Y167D01*
Y70D02*
Y86D01*
X1226Y199D02*
Y220D01*
Y108D02*
Y169D01*
Y70D02*
Y87D01*
X1226Y199D02*
Y220D01*
Y108D02*
Y169D01*
Y70D02*
Y87D01*
X1225Y199D02*
Y220D01*
Y107D02*
Y169D01*
Y70D02*
Y88D01*
X1225Y199D02*
Y220D01*
Y107D02*
Y169D01*
Y70D02*
Y88D01*
X1225Y197D02*
Y220D01*
Y106D02*
Y170D01*
Y70D02*
Y89D01*
X1224Y197D02*
Y220D01*
Y106D02*
Y170D01*
Y70D02*
Y89D01*
X1224Y197D02*
Y220D01*
Y106D02*
Y172D01*
Y70D02*
Y91D01*
X1224Y197D02*
Y220D01*
Y106D02*
Y172D01*
Y70D02*
Y91D01*
X1224Y196D02*
Y220D01*
Y105D02*
Y171D01*
Y70D02*
Y91D01*
X1223Y196D02*
Y220D01*
Y105D02*
Y171D01*
Y70D02*
Y91D01*
X1223Y195D02*
Y220D01*
Y105D02*
Y172D01*
Y70D02*
Y91D01*
X1223Y195D02*
Y220D01*
Y105D02*
Y173D01*
Y70D02*
Y92D01*
X1222Y195D02*
Y220D01*
Y105D02*
Y173D01*
Y70D02*
Y92D01*
X1222Y194D02*
Y220D01*
Y103D02*
Y172D01*
Y70D02*
Y92D01*
X1222Y194D02*
Y220D01*
Y103D02*
Y172D01*
Y70D02*
Y92D01*
X1221Y194D02*
Y220D01*
Y104D02*
Y172D01*
Y70D02*
Y94D01*
X1221Y194D02*
Y220D01*
Y104D02*
Y172D01*
Y70D02*
Y94D01*
X1221Y193D02*
Y220D01*
Y105D02*
Y172D01*
Y70D02*
Y93D01*
X1221Y193D02*
Y220D01*
Y105D02*
Y172D01*
Y70D02*
Y93D01*
X1220Y193D02*
Y220D01*
Y103D02*
Y172D01*
Y70D02*
Y94D01*
X1220Y193D02*
Y220D01*
Y103D02*
Y172D01*
Y70D02*
Y94D01*
X1220Y192D02*
Y220D01*
Y103D02*
Y172D01*
Y70D02*
Y94D01*
X1219Y192D02*
Y220D01*
Y103D02*
Y172D01*
Y70D02*
Y94D01*
X1219Y193D02*
Y220D01*
Y104D02*
Y173D01*
Y70D02*
Y94D01*
X1219Y193D02*
Y220D01*
Y104D02*
Y173D01*
Y70D02*
Y94D01*
X1218Y192D02*
Y220D01*
Y105D02*
Y172D01*
Y70D02*
Y94D01*
X1218Y191D02*
Y220D01*
Y104D02*
Y173D01*
Y70D02*
Y94D01*
X1218Y191D02*
Y220D01*
Y104D02*
Y173D01*
Y70D02*
Y94D01*
X1218Y190D02*
Y220D01*
Y105D02*
Y172D01*
Y70D02*
Y96D01*
X1217Y190D02*
Y220D01*
Y105D02*
Y172D01*
Y70D02*
Y96D01*
X1217Y191D02*
Y220D01*
Y104D02*
Y173D01*
Y70D02*
Y95D01*
X1217Y191D02*
Y220D01*
Y104D02*
Y173D01*
Y70D02*
Y95D01*
X1216Y190D02*
Y220D01*
Y104D02*
Y172D01*
Y70D02*
Y96D01*
X1216Y190D02*
Y220D01*
Y104D02*
Y172D01*
Y70D02*
Y96D01*
X1216Y191D02*
Y220D01*
Y105D02*
Y172D01*
Y70D02*
Y97D01*
X1215Y191D02*
Y220D01*
Y105D02*
Y172D01*
Y70D02*
Y97D01*
X1215Y191D02*
Y220D01*
Y105D02*
Y172D01*
Y70D02*
Y96D01*
X1215Y191D02*
Y220D01*
Y105D02*
Y172D01*
Y70D02*
Y96D01*
X1215Y190D02*
Y220D01*
Y105D02*
Y172D01*
Y70D02*
Y97D01*
X1214Y190D02*
Y220D01*
Y105D02*
Y172D01*
Y70D02*
Y97D01*
X1214Y190D02*
Y220D01*
Y104D02*
Y171D01*
Y70D02*
Y97D01*
X1214Y190D02*
Y220D01*
Y105D02*
Y172D01*
Y70D02*
Y97D01*
X1213Y190D02*
Y220D01*
Y105D02*
Y172D01*
Y70D02*
Y97D01*
X1213Y189D02*
Y220D01*
Y105D02*
Y171D01*
Y70D02*
Y98D01*
X1213Y189D02*
Y220D01*
Y105D02*
Y171D01*
Y70D02*
Y98D01*
X1212Y187D02*
Y220D01*
Y106D02*
Y170D01*
Y70D02*
Y98D01*
X1212Y187D02*
Y220D01*
Y106D02*
Y170D01*
Y70D02*
Y98D01*
X1212Y189D02*
Y220D01*
Y106D02*
Y172D01*
Y70D02*
Y97D01*
X1212Y189D02*
Y220D01*
Y106D02*
Y172D01*
Y70D02*
Y97D01*
X1211Y188D02*
Y220D01*
Y106D02*
Y171D01*
Y70D02*
Y99D01*
X1211Y188D02*
Y220D01*
Y106D02*
Y171D01*
Y70D02*
Y99D01*
X1211Y188D02*
Y220D01*
Y106D02*
Y170D01*
Y70D02*
Y99D01*
X1210Y188D02*
Y220D01*
Y106D02*
Y170D01*
Y70D02*
Y99D01*
X1210Y188D02*
Y220D01*
Y107D02*
Y171D01*
Y70D02*
Y100D01*
X1210Y188D02*
Y220D01*
Y107D02*
Y169D01*
Y70D02*
Y99D01*
X1209Y188D02*
Y220D01*
Y107D02*
Y169D01*
Y70D02*
Y99D01*
X1209Y187D02*
Y220D01*
Y107D02*
Y169D01*
Y70D02*
Y100D01*
X1209Y187D02*
Y220D01*
Y107D02*
Y169D01*
Y70D02*
Y100D01*
X1209Y187D02*
Y220D01*
Y107D02*
Y169D01*
Y70D02*
Y99D01*
X1208Y187D02*
Y220D01*
Y107D02*
Y169D01*
Y70D02*
Y99D01*
X1208Y186D02*
Y220D01*
Y106D02*
Y169D01*
Y70D02*
Y99D01*
X1208Y186D02*
Y220D01*
Y106D02*
Y169D01*
Y70D02*
Y99D01*
X1207Y187D02*
Y220D01*
Y108D02*
Y169D01*
Y70D02*
Y100D01*
X1207Y187D02*
Y220D01*
Y108D02*
Y169D01*
Y70D02*
Y100D01*
X1207Y187D02*
Y220D01*
Y107D02*
Y169D01*
Y70D02*
Y100D01*
X1206Y187D02*
Y220D01*
Y107D02*
Y169D01*
Y70D02*
Y100D01*
X1206Y186D02*
Y220D01*
Y109D02*
Y169D01*
Y70D02*
Y102D01*
X1206Y186D02*
Y220D01*
Y109D02*
Y169D01*
Y70D02*
Y102D01*
X1206Y186D02*
Y220D01*
Y108D02*
Y168D01*
Y70D02*
Y100D01*
X1205Y185D02*
Y220D01*
Y109D02*
Y168D01*
Y70D02*
Y101D01*
X1205Y185D02*
Y220D01*
Y109D02*
Y168D01*
Y70D02*
Y101D01*
X1205Y186D02*
Y220D01*
Y108D02*
Y169D01*
Y70D02*
Y101D01*
X1204Y186D02*
Y220D01*
Y108D02*
Y169D01*
Y70D02*
Y101D01*
X1204Y185D02*
Y220D01*
Y109D02*
Y167D01*
Y70D02*
Y103D01*
X1204Y185D02*
Y220D01*
Y109D02*
Y167D01*
Y70D02*
Y103D01*
X1203Y185D02*
Y220D01*
Y109D02*
Y168D01*
Y70D02*
Y101D01*
X1203Y185D02*
Y220D01*
Y109D02*
Y168D01*
Y70D02*
Y101D01*
X1203Y183D02*
Y220D01*
Y110D02*
Y166D01*
Y70D02*
Y101D01*
X1203Y183D02*
Y220D01*
Y110D02*
Y166D01*
Y70D02*
Y101D01*
X1202Y184D02*
Y220D01*
Y110D02*
Y166D01*
Y70D02*
Y102D01*
X1202Y184D02*
Y220D01*
Y110D02*
Y166D01*
Y70D02*
Y102D01*
X1202Y183D02*
Y220D01*
Y110D02*
Y167D01*
Y70D02*
Y103D01*
X1201Y183D02*
Y220D01*
Y110D02*
Y167D01*
Y70D02*
Y103D01*
X1201Y184D02*
Y220D01*
Y111D02*
Y166D01*
Y70D02*
Y103D01*
X1201Y184D02*
Y220D01*
Y111D02*
Y166D01*
Y70D02*
Y105D01*
X1200Y184D02*
Y220D01*
Y111D02*
Y166D01*
Y70D02*
Y105D01*
X1200Y183D02*
Y220D01*
Y112D02*
Y166D01*
Y70D02*
Y103D01*
X1200Y183D02*
Y220D01*
Y112D02*
Y166D01*
Y70D02*
Y103D01*
X1200Y182D02*
Y220D01*
Y111D02*
Y165D01*
Y70D02*
Y103D01*
X1199Y182D02*
Y220D01*
Y111D02*
Y165D01*
Y70D02*
Y103D01*
X1199Y183D02*
Y220D01*
Y112D02*
Y165D01*
Y70D02*
Y103D01*
X1199Y183D02*
Y220D01*
Y112D02*
Y165D01*
Y70D02*
Y103D01*
X1198Y183D02*
Y220D01*
Y111D02*
Y165D01*
Y70D02*
Y103D01*
X1198Y183D02*
Y220D01*
Y111D02*
Y165D01*
Y70D02*
Y103D01*
X1198Y183D02*
Y220D01*
Y112D02*
Y165D01*
Y70D02*
Y103D01*
X1197Y183D02*
Y220D01*
Y112D02*
Y165D01*
Y70D02*
Y103D01*
X1197Y182D02*
Y220D01*
Y112D02*
Y165D01*
Y70D02*
Y106D01*
X1197Y182D02*
Y220D01*
Y112D02*
Y165D01*
Y70D02*
Y106D01*
X1197Y182D02*
Y220D01*
Y112D02*
Y164D01*
Y70D02*
Y104D01*
X1196Y179D02*
Y220D01*
Y112D02*
Y164D01*
Y70D02*
Y104D01*
X1196Y179D02*
Y220D01*
Y112D02*
Y164D01*
Y70D02*
Y104D01*
X1196Y182D02*
Y220D01*
Y113D02*
Y164D01*
Y70D02*
Y105D01*
X1195Y182D02*
Y220D01*
Y113D02*
Y164D01*
Y70D02*
Y105D01*
X1195Y182D02*
Y220D01*
Y114D02*
Y164D01*
Y70D02*
Y106D01*
X1195Y182D02*
Y220D01*
Y114D02*
Y164D01*
Y70D02*
Y106D01*
X1194Y182D02*
Y220D01*
Y113D02*
Y163D01*
Y70D02*
Y105D01*
X1194Y182D02*
Y220D01*
Y113D02*
Y163D01*
Y70D02*
Y105D01*
X1194Y181D02*
Y220D01*
Y114D02*
Y163D01*
Y70D02*
Y106D01*
X1194Y181D02*
Y220D01*
Y114D02*
Y163D01*
Y70D02*
Y106D01*
X1193Y181D02*
Y220D01*
Y163D02*
Y164D01*
Y113D02*
Y163D01*
Y70D02*
Y106D01*
X1193Y181D02*
Y220D01*
Y163D02*
Y164D01*
Y113D02*
Y163D01*
Y70D02*
Y106D01*
X1193Y178D02*
Y220D01*
Y114D02*
Y163D01*
Y70D02*
Y106D01*
X1192Y181D02*
Y220D01*
Y115D02*
Y164D01*
Y70D02*
Y106D01*
X1192Y181D02*
Y220D01*
Y115D02*
Y164D01*
Y70D02*
Y106D01*
X1192Y181D02*
Y220D01*
Y114D02*
Y163D01*
Y70D02*
Y107D01*
X1191Y181D02*
Y220D01*
Y114D02*
Y163D01*
Y70D02*
Y107D01*
X1191Y179D02*
Y220D01*
Y115D02*
Y163D01*
Y70D02*
Y109D01*
X1191Y179D02*
Y220D01*
Y115D02*
Y163D01*
Y70D02*
Y109D01*
X1191Y180D02*
Y220D01*
Y70D02*
Y107D01*
X1190Y180D02*
Y220D01*
Y70D02*
Y107D01*
X1190Y179D02*
Y220D01*
Y70D02*
Y109D01*
X1190Y179D02*
Y220D01*
Y70D02*
Y109D01*
X1189Y179D02*
Y220D01*
Y70D02*
Y107D01*
X1189Y179D02*
Y220D01*
Y70D02*
Y107D01*
X1189Y179D02*
Y220D01*
Y70D02*
Y109D01*
X1188Y179D02*
Y220D01*
Y70D02*
Y109D01*
X1188Y178D02*
Y220D01*
Y70D02*
Y109D01*
X1188Y179D02*
Y220D01*
Y70D02*
Y108D01*
X1188Y179D02*
Y220D01*
Y70D02*
Y108D01*
X1187Y178D02*
Y220D01*
Y70D02*
Y110D01*
X1187Y178D02*
Y220D01*
Y70D02*
Y110D01*
X1187Y178D02*
Y220D01*
Y70D02*
Y109D01*
X1186Y178D02*
Y220D01*
Y70D02*
Y109D01*
X1186Y177D02*
Y220D01*
Y70D02*
Y110D01*
X1186Y177D02*
Y220D01*
Y70D02*
Y110D01*
X1185Y178D02*
Y220D01*
Y70D02*
Y109D01*
X1185Y178D02*
Y220D01*
Y70D02*
Y109D01*
X1185Y178D02*
Y220D01*
Y70D02*
Y110D01*
X1185Y178D02*
Y220D01*
Y70D02*
Y110D01*
X1184Y177D02*
Y220D01*
Y70D02*
Y110D01*
X1184Y177D02*
Y220D01*
Y70D02*
Y110D01*
X1184Y177D02*
Y220D01*
Y70D02*
Y111D01*
X1183Y177D02*
Y220D01*
Y70D02*
Y110D01*
X1183Y177D02*
Y220D01*
Y70D02*
Y110D01*
X1183Y177D02*
Y220D01*
Y70D02*
Y110D01*
X1182Y177D02*
Y220D01*
Y70D02*
Y110D01*
X1182Y176D02*
Y220D01*
Y119D02*
Y159D01*
Y70D02*
Y111D01*
X1182Y176D02*
Y220D01*
Y119D02*
Y159D01*
Y70D02*
Y111D01*
X1182Y176D02*
Y220D01*
Y119D02*
Y158D01*
Y70D02*
Y112D01*
X1181Y176D02*
Y220D01*
Y119D02*
Y158D01*
Y70D02*
Y112D01*
X1181Y176D02*
Y220D01*
Y119D02*
Y157D01*
Y70D02*
Y111D01*
X1181Y176D02*
Y220D01*
Y119D02*
Y157D01*
Y70D02*
Y111D01*
X1180Y175D02*
Y220D01*
Y119D02*
Y157D01*
Y70D02*
Y112D01*
X1180Y175D02*
Y220D01*
Y119D02*
Y157D01*
Y70D02*
Y112D01*
X1180Y175D02*
Y220D01*
Y120D02*
Y157D01*
Y70D02*
Y112D01*
X1179Y175D02*
Y220D01*
Y120D02*
Y157D01*
Y70D02*
Y112D01*
X1179Y175D02*
Y220D01*
Y120D02*
Y157D01*
Y70D02*
Y112D01*
X1179Y174D02*
Y220D01*
Y121D02*
Y157D01*
Y70D02*
Y112D01*
X1179Y174D02*
Y220D01*
Y121D02*
Y157D01*
Y70D02*
Y112D01*
X1178Y173D02*
Y220D01*
Y120D02*
Y156D01*
Y70D02*
Y113D01*
X1178Y173D02*
Y220D01*
Y120D02*
Y156D01*
Y70D02*
Y113D01*
X1178Y174D02*
Y220D01*
Y121D02*
Y157D01*
Y70D02*
Y112D01*
X1177Y174D02*
Y220D01*
Y121D02*
Y157D01*
Y70D02*
Y112D01*
X1177Y174D02*
Y220D01*
Y120D02*
Y156D01*
Y70D02*
Y113D01*
X1177Y174D02*
Y220D01*
Y120D02*
Y156D01*
Y70D02*
Y113D01*
X1176Y173D02*
Y220D01*
Y121D02*
Y156D01*
Y70D02*
Y113D01*
X1176Y173D02*
Y220D01*
Y121D02*
Y156D01*
Y70D02*
Y113D01*
X1176Y174D02*
Y220D01*
Y121D02*
Y157D01*
Y70D02*
Y115D01*
X1176Y174D02*
Y220D01*
Y121D02*
Y157D01*
Y70D02*
Y115D01*
X1175Y173D02*
Y220D01*
Y122D02*
Y156D01*
Y70D02*
Y114D01*
X1175Y173D02*
Y220D01*
Y121D02*
Y155D01*
Y70D02*
Y115D01*
X1175Y173D02*
Y220D01*
Y121D02*
Y155D01*
Y70D02*
Y115D01*
X1174Y173D02*
Y220D01*
Y122D02*
Y156D01*
Y70D02*
Y114D01*
X1174Y173D02*
Y220D01*
Y122D02*
Y156D01*
Y70D02*
Y114D01*
X1174Y173D02*
Y220D01*
Y123D02*
Y155D01*
Y70D02*
Y115D01*
X1173Y173D02*
Y220D01*
Y123D02*
Y155D01*
Y70D02*
Y115D01*
X1173Y173D02*
Y220D01*
Y121D02*
Y155D01*
Y70D02*
Y114D01*
X1173Y173D02*
Y220D01*
Y121D02*
Y155D01*
Y70D02*
Y114D01*
X1173Y172D02*
Y220D01*
Y121D02*
Y154D01*
Y70D02*
Y115D01*
X1172Y172D02*
Y220D01*
Y121D02*
Y154D01*
Y70D02*
Y115D01*
X1172Y172D02*
Y220D01*
Y123D02*
Y154D01*
Y70D02*
Y115D01*
X1172Y172D02*
Y220D01*
Y123D02*
Y154D01*
Y70D02*
Y115D01*
X1171Y172D02*
Y220D01*
Y122D02*
Y154D01*
Y70D02*
Y116D01*
X1171Y172D02*
Y220D01*
Y122D02*
Y154D01*
Y70D02*
Y116D01*
X1171Y171D02*
Y220D01*
Y124D02*
Y154D01*
Y70D02*
Y115D01*
X1170Y172D02*
Y220D01*
Y122D02*
Y154D01*
Y70D02*
Y116D01*
X1170Y172D02*
Y220D01*
Y122D02*
Y154D01*
Y70D02*
Y116D01*
X1170Y170D02*
Y220D01*
Y124D02*
Y153D01*
Y70D02*
Y116D01*
X1170Y170D02*
Y220D01*
Y124D02*
Y153D01*
Y70D02*
Y116D01*
X1169Y170D02*
Y220D01*
Y124D02*
Y153D01*
Y70D02*
Y116D01*
X1169Y170D02*
Y220D01*
Y124D02*
Y153D01*
Y70D02*
Y116D01*
X1169Y171D02*
Y220D01*
Y124D02*
Y152D01*
Y70D02*
Y116D01*
X1168Y171D02*
Y220D01*
Y124D02*
Y152D01*
Y70D02*
Y116D01*
X1168Y170D02*
Y220D01*
Y125D02*
Y152D01*
Y70D02*
Y118D01*
X1168Y170D02*
Y220D01*
Y125D02*
Y152D01*
Y70D02*
Y118D01*
X1167Y170D02*
Y220D01*
Y124D02*
Y152D01*
Y70D02*
Y117D01*
X1167Y170D02*
Y220D01*
Y124D02*
Y152D01*
Y70D02*
Y117D01*
X1167Y170D02*
Y220D01*
Y125D02*
Y152D01*
Y70D02*
Y118D01*
X1167Y170D02*
Y220D01*
Y125D02*
Y152D01*
Y70D02*
Y118D01*
X1166Y169D02*
Y220D01*
Y126D02*
Y152D01*
Y70D02*
Y117D01*
X1166Y169D02*
Y220D01*
Y125D02*
Y151D01*
Y70D02*
Y118D01*
X1166Y169D02*
Y220D01*
Y125D02*
Y151D01*
Y70D02*
Y118D01*
X1165Y169D02*
Y220D01*
Y126D02*
Y151D01*
Y70D02*
Y118D01*
X1165Y169D02*
Y220D01*
Y126D02*
Y151D01*
Y70D02*
Y118D01*
X1165Y169D02*
Y220D01*
Y126D02*
Y151D01*
Y70D02*
Y118D01*
X1164Y169D02*
Y220D01*
Y126D02*
Y151D01*
Y70D02*
Y118D01*
X1164Y168D02*
Y220D01*
Y125D02*
Y151D01*
Y70D02*
Y119D01*
X1164Y168D02*
Y220D01*
Y125D02*
Y151D01*
Y70D02*
Y119D01*
X1164Y169D02*
Y220D01*
Y127D02*
Y151D01*
Y70D02*
Y119D01*
X1163Y169D02*
Y220D01*
Y127D02*
Y151D01*
Y70D02*
Y119D01*
X1163Y168D02*
Y220D01*
Y127D02*
Y151D01*
Y70D02*
Y120D01*
X1163Y168D02*
Y220D01*
Y127D02*
Y151D01*
Y70D02*
Y120D01*
X1162Y167D02*
Y220D01*
Y128D02*
Y150D01*
Y70D02*
Y119D01*
X1162Y168D02*
Y220D01*
Y128D02*
Y150D01*
Y70D02*
Y120D01*
X1162Y168D02*
Y220D01*
Y128D02*
Y150D01*
Y70D02*
Y120D01*
X1161Y166D02*
Y220D01*
Y128D02*
Y150D01*
Y70D02*
Y119D01*
X1161Y166D02*
Y220D01*
Y128D02*
Y150D01*
Y70D02*
Y119D01*
X1161Y168D02*
Y220D01*
Y128D02*
Y149D01*
Y70D02*
Y120D01*
X1161Y168D02*
Y220D01*
Y128D02*
Y149D01*
Y70D02*
Y120D01*
X1160Y167D02*
Y220D01*
Y128D02*
Y150D01*
Y70D02*
Y121D01*
X1160Y167D02*
Y220D01*
Y128D02*
Y150D01*
Y70D02*
Y121D01*
X1160Y165D02*
Y220D01*
Y128D02*
Y150D01*
Y70D02*
Y121D01*
X1159Y165D02*
Y220D01*
Y128D02*
Y150D01*
Y70D02*
Y121D01*
X1159Y167D02*
Y220D01*
Y129D02*
Y148D01*
Y70D02*
Y121D01*
X1159Y167D02*
Y220D01*
Y129D02*
Y148D01*
Y70D02*
Y121D01*
X1158Y166D02*
Y220D01*
Y130D02*
Y149D01*
Y70D02*
Y121D01*
X1158Y166D02*
Y220D01*
Y130D02*
Y149D01*
Y70D02*
Y121D01*
X1158Y166D02*
Y220D01*
Y129D02*
Y148D01*
Y70D02*
Y122D01*
X1158Y165D02*
Y220D01*
Y128D02*
Y148D01*
Y70D02*
Y121D01*
X1157Y165D02*
Y220D01*
Y128D02*
Y148D01*
Y70D02*
Y121D01*
X1157Y166D02*
Y220D01*
Y130D02*
Y148D01*
Y70D02*
Y121D01*
X1157Y166D02*
Y220D01*
Y130D02*
Y148D01*
Y70D02*
Y121D01*
X1156Y164D02*
Y220D01*
Y130D02*
Y147D01*
Y70D02*
Y122D01*
X1156Y164D02*
Y220D01*
Y130D02*
Y147D01*
Y70D02*
Y122D01*
X1156Y164D02*
Y220D01*
Y130D02*
Y148D01*
Y70D02*
Y122D01*
X1155Y164D02*
Y220D01*
Y130D02*
Y148D01*
Y70D02*
Y122D01*
X1155Y165D02*
Y220D01*
Y130D02*
Y147D01*
Y70D02*
Y124D01*
X1155Y165D02*
Y220D01*
Y130D02*
Y147D01*
Y70D02*
Y124D01*
X1155Y164D02*
Y220D01*
Y130D02*
Y147D01*
Y70D02*
Y122D01*
X1154Y164D02*
Y220D01*
Y130D02*
Y147D01*
Y70D02*
Y122D01*
X1154Y165D02*
Y220D01*
Y130D02*
Y146D01*
Y70D02*
Y123D01*
X1154Y165D02*
Y220D01*
Y130D02*
Y146D01*
Y70D02*
Y123D01*
X1153Y164D02*
Y220D01*
Y131D02*
Y147D01*
Y70D02*
Y123D01*
X1153Y164D02*
Y220D01*
Y131D02*
Y147D01*
Y70D02*
Y124D01*
X1153Y164D02*
Y220D01*
Y131D02*
Y147D01*
Y70D02*
Y124D01*
X1152Y164D02*
Y220D01*
Y132D02*
Y146D01*
Y70D02*
Y123D01*
X1152Y164D02*
Y220D01*
Y132D02*
Y146D01*
Y70D02*
Y123D01*
X1152Y163D02*
Y220D01*
Y131D02*
Y146D01*
Y70D02*
Y124D01*
X1152Y163D02*
Y220D01*
Y131D02*
Y146D01*
Y70D02*
Y124D01*
X1151Y163D02*
Y220D01*
Y132D02*
Y145D01*
Y70D02*
Y125D01*
X1151Y163D02*
Y220D01*
Y132D02*
Y145D01*
Y70D02*
Y125D01*
X1151Y163D02*
Y220D01*
Y132D02*
Y145D01*
Y70D02*
Y124D01*
X1150Y163D02*
Y220D01*
Y132D02*
Y145D01*
Y70D02*
Y124D01*
X1150Y163D02*
Y220D01*
Y133D02*
Y146D01*
Y70D02*
Y124D01*
X1150Y163D02*
Y220D01*
Y133D02*
Y146D01*
Y70D02*
Y124D01*
X1149Y163D02*
Y220D01*
Y133D02*
Y145D01*
Y70D02*
Y125D01*
X1149Y163D02*
Y220D01*
Y133D02*
Y145D01*
Y70D02*
Y125D01*
X1149Y161D02*
Y220D01*
Y133D02*
Y145D01*
Y70D02*
Y125D01*
X1149Y162D02*
Y220D01*
Y133D02*
Y144D01*
Y70D02*
Y125D01*
X1148Y162D02*
Y220D01*
Y133D02*
Y144D01*
Y70D02*
Y125D01*
X1148Y161D02*
Y220D01*
Y133D02*
Y145D01*
Y70D02*
Y125D01*
X1148Y161D02*
Y220D01*
Y133D02*
Y145D01*
Y70D02*
Y125D01*
X1147Y161D02*
Y220D01*
Y134D02*
Y144D01*
Y70D02*
Y126D01*
X1147Y161D02*
Y220D01*
Y134D02*
Y144D01*
Y70D02*
Y126D01*
X1147Y161D02*
Y220D01*
Y134D02*
Y144D01*
Y70D02*
Y126D01*
X1146Y161D02*
Y220D01*
Y134D02*
Y144D01*
Y70D02*
Y126D01*
X1146Y161D02*
Y220D01*
Y133D02*
Y143D01*
Y70D02*
Y127D01*
X1146Y161D02*
Y220D01*
Y133D02*
Y143D01*
Y70D02*
Y127D01*
X1146Y160D02*
Y220D01*
Y134D02*
Y143D01*
Y70D02*
Y126D01*
X1145Y160D02*
Y220D01*
Y134D02*
Y143D01*
Y70D02*
Y126D01*
X1145Y161D02*
Y220D01*
Y134D02*
Y143D01*
Y70D02*
Y127D01*
X1145Y161D02*
Y220D01*
Y135D02*
Y143D01*
Y70D02*
Y127D01*
X1144Y161D02*
Y220D01*
Y135D02*
Y143D01*
Y70D02*
Y127D01*
X1144Y160D02*
Y220D01*
Y134D02*
Y142D01*
Y70D02*
Y127D01*
X1144Y160D02*
Y220D01*
Y134D02*
Y142D01*
Y70D02*
Y127D01*
X1143Y160D02*
Y220D01*
Y136D02*
Y142D01*
Y70D02*
Y128D01*
X1143Y160D02*
Y220D01*
Y136D02*
Y142D01*
Y70D02*
Y128D01*
X1143Y160D02*
Y220D01*
Y134D02*
Y143D01*
Y70D02*
Y128D01*
X1143Y160D02*
Y220D01*
Y134D02*
Y143D01*
Y70D02*
Y128D01*
X1142Y160D02*
Y220D01*
Y136D02*
Y142D01*
Y70D02*
Y130D01*
X1142Y160D02*
Y220D01*
Y136D02*
Y142D01*
Y70D02*
Y130D01*
X1142Y159D02*
Y220D01*
Y135D02*
Y141D01*
Y70D02*
Y130D01*
X1141Y159D02*
Y220D01*
Y135D02*
Y141D01*
Y70D02*
Y130D01*
X1141Y159D02*
Y220D01*
Y135D02*
Y142D01*
Y70D02*
Y128D01*
X1141Y159D02*
Y220D01*
Y135D02*
Y142D01*
Y70D02*
Y128D01*
X1140Y159D02*
Y220D01*
Y137D02*
Y141D01*
Y70D02*
Y130D01*
X1140Y159D02*
Y220D01*
Y136D02*
Y141D01*
Y70D02*
Y129D01*
X1140Y159D02*
Y220D01*
Y136D02*
Y141D01*
Y70D02*
Y129D01*
X1140Y156D02*
Y220D01*
Y137D02*
Y142D01*
Y70D02*
Y130D01*
X1139Y156D02*
Y220D01*
Y137D02*
Y142D01*
Y70D02*
Y130D01*
X1139Y159D02*
Y220D01*
Y136D02*
Y140D01*
Y70D02*
Y130D01*
X1139Y159D02*
Y220D01*
Y136D02*
Y140D01*
Y70D02*
Y130D01*
X1138Y158D02*
Y220D01*
Y137D02*
Y141D01*
Y70D02*
Y130D01*
X1138Y158D02*
Y220D01*
Y137D02*
Y141D01*
Y70D02*
Y130D01*
X1138Y158D02*
Y220D01*
Y138D02*
Y140D01*
Y70D02*
Y130D01*
X1137Y158D02*
Y220D01*
Y138D02*
Y140D01*
Y70D02*
Y130D01*
X1137Y157D02*
Y220D01*
Y138D02*
Y141D01*
Y70D02*
Y130D01*
X1137Y157D02*
Y220D01*
Y138D02*
Y141D01*
Y70D02*
Y130D01*
X1137Y157D02*
Y220D01*
Y138D02*
Y141D01*
Y70D02*
Y130D01*
X1136Y157D02*
Y220D01*
Y138D02*
Y141D01*
Y70D02*
Y130D01*
X1136Y157D02*
Y220D01*
Y70D02*
Y130D01*
X1136Y156D02*
Y220D01*
Y70D02*
Y130D01*
X1135Y156D02*
Y220D01*
Y70D02*
Y130D01*
X1135Y157D02*
Y220D01*
Y70D02*
Y131D01*
X1135Y157D02*
Y220D01*
Y70D02*
Y131D01*
X1134Y156D02*
Y220D01*
Y70D02*
Y131D01*
X1134Y156D02*
Y220D01*
Y70D02*
Y131D01*
X1134Y156D02*
Y220D01*
Y70D02*
Y132D01*
X1134Y156D02*
Y220D01*
Y70D02*
Y132D01*
X1133Y155D02*
Y220D01*
Y70D02*
Y132D01*
X1133Y155D02*
Y220D01*
Y70D02*
Y132D01*
X1133Y155D02*
Y220D01*
Y70D02*
Y132D01*
X1132Y155D02*
Y220D01*
Y70D02*
Y132D01*
X1132Y156D02*
Y220D01*
Y70D02*
Y133D01*
X1132Y156D02*
Y220D01*
Y70D02*
Y133D01*
X1131Y155D02*
Y220D01*
Y70D02*
Y133D01*
X1131Y155D02*
Y220D01*
Y70D02*
Y133D01*
X1131Y155D02*
Y220D01*
Y70D02*
Y133D01*
X1131Y154D02*
Y220D01*
Y70D02*
Y133D01*
X1130Y154D02*
Y220D01*
Y70D02*
Y133D01*
X1130Y154D02*
Y220D01*
Y70D02*
Y133D01*
X1130Y154D02*
Y220D01*
Y70D02*
Y133D01*
X1129Y155D02*
Y220D01*
Y70D02*
Y133D01*
X1129Y155D02*
Y220D01*
Y70D02*
Y133D01*
X1129Y154D02*
Y220D01*
Y70D02*
Y134D01*
X1128Y154D02*
Y220D01*
Y70D02*
Y134D01*
X1128Y154D02*
Y220D01*
Y70D02*
Y134D01*
X1128Y154D02*
Y220D01*
Y70D02*
Y134D01*
X1128Y154D02*
Y220D01*
Y70D02*
Y134D01*
X1127Y154D02*
Y220D01*
Y70D02*
Y136D01*
X1127Y154D02*
Y220D01*
Y70D02*
Y136D01*
X1127Y153D02*
Y220D01*
Y70D02*
Y134D01*
X1126Y153D02*
Y220D01*
Y70D02*
Y134D01*
X1126Y153D02*
Y220D01*
Y70D02*
Y135D01*
X1126Y153D02*
Y220D01*
Y70D02*
Y135D01*
X1125Y152D02*
Y220D01*
Y70D02*
Y135D01*
X1125Y152D02*
Y220D01*
Y70D02*
Y135D01*
X1125Y152D02*
Y220D01*
Y70D02*
Y135D01*
X1125Y152D02*
Y220D01*
Y70D02*
Y135D01*
X1124Y152D02*
Y220D01*
Y70D02*
Y136D01*
X1124Y152D02*
Y220D01*
Y70D02*
Y136D01*
X1124Y151D02*
Y220D01*
Y70D02*
Y136D01*
X1123Y151D02*
Y220D01*
Y70D02*
Y136D01*
X1123Y152D02*
Y220D01*
Y70D02*
Y137D01*
X1123Y152D02*
Y220D01*
Y70D02*
Y136D01*
X1122Y152D02*
Y220D01*
Y70D02*
Y136D01*
X1122Y151D02*
Y220D01*
Y70D02*
Y137D01*
X1122Y151D02*
Y220D01*
Y70D02*
Y137D01*
X1122Y151D02*
Y220D01*
Y70D02*
Y137D01*
X1121Y151D02*
Y220D01*
Y70D02*
Y137D01*
X1121Y150D02*
Y220D01*
Y70D02*
Y137D01*
X1121Y150D02*
Y220D01*
Y70D02*
Y137D01*
X1120Y151D02*
Y220D01*
Y70D02*
Y137D01*
X1120Y151D02*
Y220D01*
Y70D02*
Y137D01*
X1120Y150D02*
Y220D01*
Y70D02*
Y138D01*
X1119Y150D02*
Y220D01*
Y70D02*
Y138D01*
X1119Y150D02*
Y220D01*
Y70D02*
Y138D01*
X1119Y150D02*
Y220D01*
Y70D02*
Y138D01*
X1119Y150D02*
Y220D01*
Y70D02*
Y138D01*
X1118Y150D02*
Y220D01*
Y70D02*
Y138D01*
X1118Y150D02*
Y220D01*
Y70D02*
Y138D01*
X1118Y150D02*
Y220D01*
Y70D02*
Y139D01*
X1117Y150D02*
Y220D01*
Y70D02*
Y139D01*
X1117Y149D02*
Y220D01*
Y70D02*
Y138D01*
X1117Y149D02*
Y220D01*
Y70D02*
Y138D01*
X1116Y148D02*
Y220D01*
Y70D02*
Y139D01*
X1116Y148D02*
Y220D01*
Y70D02*
Y139D01*
X1116Y148D02*
Y220D01*
Y70D02*
Y139D01*
X1116Y148D02*
Y220D01*
Y70D02*
Y139D01*
X1115Y148D02*
Y220D01*
Y70D02*
Y140D01*
X1115Y148D02*
Y220D01*
Y70D02*
Y140D01*
X1115Y147D02*
Y220D01*
Y70D02*
Y139D01*
X1114Y147D02*
Y220D01*
Y70D02*
Y139D01*
X1114Y148D02*
Y220D01*
Y70D02*
Y140D01*
X1114Y147D02*
Y220D01*
Y70D02*
Y141D01*
X1113Y147D02*
Y220D01*
Y70D02*
Y141D01*
X1113Y148D02*
Y220D01*
Y70D02*
Y142D01*
X1113Y148D02*
Y220D01*
Y70D02*
Y142D01*
X1113Y147D02*
Y220D01*
Y70D02*
Y141D01*
X1112Y147D02*
Y220D01*
Y70D02*
Y141D01*
X1112Y147D02*
Y220D01*
Y70D02*
Y141D01*
X1112Y147D02*
Y220D01*
Y70D02*
Y141D01*
X1111Y147D02*
Y220D01*
Y70D02*
Y142D01*
X1111Y147D02*
Y220D01*
Y70D02*
Y142D01*
X1111Y146D02*
Y220D01*
Y70D02*
Y143D01*
X1110Y146D02*
Y220D01*
Y70D02*
Y143D01*
X1110Y146D02*
Y220D01*
Y70D02*
Y142D01*
X1110Y146D02*
Y220D01*
Y70D02*
Y142D01*
X1110Y146D02*
Y220D01*
Y70D02*
Y142D01*
X1109Y146D02*
Y220D01*
Y70D02*
Y145D01*
X1109Y146D02*
Y220D01*
Y70D02*
Y145D01*
X1109Y146D02*
Y220D01*
Y70D02*
Y143D01*
X1108Y146D02*
Y220D01*
Y70D02*
Y143D01*
X1108Y70D02*
Y220D01*
X1108Y70D02*
Y220D01*
X1107Y70D02*
Y220D01*
X1107Y70D02*
Y220D01*
X1107Y70D02*
Y220D01*
X1107Y70D02*
Y220D01*
X1106Y70D02*
Y220D01*
X1106Y70D02*
Y220D01*
X1106Y70D02*
Y220D01*
X1105Y70D02*
Y220D01*
X1105Y70D02*
Y220D01*
X1105Y70D02*
Y220D01*
X1104Y70D02*
Y220D01*
X1104Y70D02*
Y220D01*
X1104Y70D02*
Y220D01*
X1104Y70D02*
Y220D01*
X1103Y70D02*
Y220D01*
X1103Y70D02*
Y220D01*
X1103Y70D02*
Y220D01*
X1102Y70D02*
Y220D01*
X1102Y70D02*
Y220D01*
X1102Y70D02*
Y220D01*
X1101Y70D02*
Y220D01*
X1101Y70D02*
Y220D01*
X1101Y70D02*
Y220D01*
X1101Y70D02*
Y220D01*
X1100Y70D02*
Y220D01*
X1100Y70D02*
Y220D01*
X1100Y70D02*
Y220D01*
X1099Y70D02*
Y220D01*
X1099Y70D02*
Y220D01*
X1099Y70D02*
Y220D01*
X1098Y70D02*
Y220D01*
X1098Y70D02*
Y220D01*
X1098Y70D02*
Y220D01*
X1098Y70D02*
Y220D01*
X1097Y70D02*
Y220D01*
X1097Y70D02*
Y220D01*
X1097Y70D02*
Y220D01*
X1096Y70D02*
Y220D01*
X1096Y70D02*
Y220D01*
X1096Y70D02*
Y220D01*
X1095Y70D02*
Y220D01*
X1095Y70D02*
Y220D01*
X1095Y70D02*
Y220D01*
D20*
X1192Y768D02*
D03*
M02*
