%FSLAX23Y23*%
%MOIN*%
G70*
G01*
G75*
G04 Layer_Color=2752767*
%ADD10C,0.004*%
%ADD11C,0.005*%
%ADD12C,0.007*%
D10*
X787Y537D02*
Y606D01*
X750Y537D02*
Y606D01*
X787D01*
X750Y537D02*
X787D01*
X792Y260D02*
Y329D01*
X755Y260D02*
Y329D01*
X792D01*
X755Y260D02*
X792D01*
X789Y388D02*
Y457D01*
X752Y388D02*
Y457D01*
X789D01*
X752Y388D02*
X789D01*
X750Y572D02*
X787D01*
X769Y553D02*
Y591D01*
X790Y525D02*
Y619D01*
X747Y525D02*
Y619D01*
X790D01*
X747Y525D02*
X790D01*
X755Y294D02*
X792D01*
X774Y276D02*
Y313D01*
X795Y247D02*
Y342D01*
X752Y247D02*
Y342D01*
X795D01*
X752Y247D02*
X795D01*
X752Y422D02*
X789D01*
X771Y404D02*
Y441D01*
X792Y375D02*
Y469D01*
X749Y375D02*
Y469D01*
X792D01*
X749Y375D02*
X792D01*
D11*
X405Y591D02*
Y631D01*
X445D01*
Y591D01*
X405D01*
X523D02*
Y631D01*
X563D01*
Y591D01*
X523D01*
X520Y274D02*
Y314D01*
X560D01*
Y274D01*
X520D01*
X402D02*
Y314D01*
X442D01*
Y274D01*
X402D01*
X174Y695D02*
X154Y735D01*
X194D01*
X174Y695D01*
X181Y154D02*
X161Y194D01*
X201D01*
X181Y154D01*
X914Y567D02*
X924Y577D01*
X934D01*
X924Y587D01*
X934Y597D01*
X924D01*
X914Y607D01*
X904Y597D01*
X894D01*
X904Y587D01*
X894Y577D01*
X904D01*
X914Y567D01*
X870Y256D02*
X880Y266D01*
X890D01*
X880Y276D01*
X890Y286D01*
X880D01*
X870Y296D01*
X860Y286D01*
X850D01*
X860Y276D01*
X850Y266D01*
X860D01*
X870Y256D01*
D12*
X132Y777D02*
G03*
X132Y777I-20J0D01*
G01*
X257D02*
G03*
X257Y777I-20J0D01*
G01*
X194Y803D02*
G03*
X194Y803I-20J0D01*
G01*
X106Y715D02*
G03*
X106Y715I-20J0D01*
G01*
X132Y652D02*
G03*
X132Y652I-20J0D01*
G01*
X194Y626D02*
G03*
X194Y626I-20J0D01*
G01*
X257Y652D02*
G03*
X257Y652I-20J0D01*
G01*
X283Y715D02*
G03*
X283Y715I-20J0D01*
G01*
X290Y174D02*
G03*
X290Y174I-20J0D01*
G01*
X264Y112D02*
G03*
X264Y112I-20J0D01*
G01*
X201Y86D02*
G03*
X201Y86I-20J0D01*
G01*
X138Y112D02*
G03*
X138Y112I-20J0D01*
G01*
X113Y174D02*
G03*
X113Y174I-20J0D01*
G01*
X201Y263D02*
G03*
X201Y263I-20J0D01*
G01*
X264Y237D02*
G03*
X264Y237I-20J0D01*
G01*
X138D02*
G03*
X138Y237I-20J0D01*
G01*
M02*
