M48
;Layer_Color=9474304
;FILE_FORMAT=2:3
INCH,TZ
;TYPE=PLATED
T1F00S00C0.020
T2F00S00C0.028
T3F00S00C0.030
T4F00S00C0.118
%
T01
X118Y112
X181Y86
X244Y112
X270Y174
X244Y237
X181Y263
X118Y237
X93Y174
X112Y652
X86Y715
X112Y777
X174Y803
X237Y777
X263Y715
X237Y652
X174Y626
T02
X870Y276
X914Y587
T03
X422Y294
X540
X543Y611
X425
T04
X181Y174
X174Y715
M30
