%FSLAX23Y23*%
%MOIN*%
G70*
G01*
G75*
G04 Layer_Color=8388736*
%ADD10R,0.035X0.031*%
%ADD11R,0.118X0.039*%
%ADD12R,0.118X0.059*%
%ADD13C,0.010*%
%ADD14C,0.060*%
%ADD15C,0.039*%
%ADD16C,0.236*%
%ADD17C,0.050*%
%ADD18C,0.004*%
%ADD19C,0.000*%
%ADD20R,0.023X0.043*%
%ADD21C,0.020*%
%ADD22C,0.059*%
%ADD23R,0.043X0.039*%
%ADD24R,0.126X0.047*%
%ADD25R,0.126X0.067*%
%ADD26C,0.068*%
%ADD27C,0.058*%
D15*
X112Y777D02*
D03*
X237D02*
D03*
X174Y803D02*
D03*
X86Y715D02*
D03*
X112Y652D02*
D03*
X174Y626D02*
D03*
X237Y652D02*
D03*
X263Y715D02*
D03*
X270Y174D02*
D03*
X244Y112D02*
D03*
X181Y86D02*
D03*
X118Y112D02*
D03*
X93Y174D02*
D03*
X181Y263D02*
D03*
X244Y237D02*
D03*
X118D02*
D03*
D16*
X174Y715D02*
D03*
X181Y174D02*
D03*
D21*
X630Y796D02*
G03*
X630Y796I-10J0D01*
G01*
D22*
X263Y715D02*
G03*
X263Y715I-89J0D01*
G01*
X270Y174D02*
G03*
X270Y174I-89J0D01*
G01*
D23*
X769Y599D02*
D03*
Y544D02*
D03*
X774Y322D02*
D03*
Y267D02*
D03*
X771Y450D02*
D03*
Y395D02*
D03*
D24*
X1032Y556D02*
D03*
Y477D02*
D03*
Y398D02*
D03*
D25*
X1229Y642D02*
D03*
Y311D02*
D03*
D26*
X425Y611D02*
D03*
X543D02*
D03*
X540Y294D02*
D03*
X422D02*
D03*
D27*
X914Y587D02*
D03*
X870Y276D02*
D03*
M02*
